<svg width="24" height="24" viewBox="0 0 24 24" fill="none" xmlns="http://www.w3.org/2000/svg">
<rect width="24" height="24" rx="4" fill="#D5FF5C"/>
<path fill-rule="evenodd" clip-rule="evenodd" d="M16.5349 12.9159C16.6871 13.2472 17.135 13.3643 17.3929 13.1065L17.8651 12.6345C18.3535 12.1464 19.1453 12.1464 19.6337 12.6345C20.1221 13.1227 20.1221 13.9141 19.6337 14.4023L15.8097 18.2246C14.8921 19.3104 13.5198 20 11.9865 20C10.3851 20 8.95942 19.2478 8.04385 18.0777L4.36629 14.4018C3.87791 13.9136 3.87791 13.1222 4.36629 12.634C4.85467 12.1459 5.64649 12.1459 6.13487 12.634L6.60044 13.0994C6.85253 13.3514 7.29002 13.238 7.43894 12.9141V12.9141C7.46838 12.8501 7.48439 12.7814 7.48439 12.711L7.48438 7.00059C7.48438 6.30991 8.04428 5.75001 8.73496 5.75001C9.42563 5.75001 9.98553 6.30991 9.98553 7.00058L9.98553 9.88892C9.98553 10.1376 10.2403 10.3065 10.4774 10.2315V10.2315C10.6276 10.1841 10.736 10.0474 10.736 9.89001L10.736 5.25041C10.736 4.55974 11.2959 3.99984 11.9866 3.99984C12.6773 3.99984 13.2372 4.55974 13.2372 5.25041L13.2372 9.89018C13.2372 10.0476 13.3456 10.1842 13.4957 10.2316V10.2316C13.7327 10.3065 13.9874 10.1377 13.9874 9.88909L13.9874 7.00059C13.9874 6.30991 14.5473 5.75001 15.2379 5.75001C15.9286 5.75001 16.4885 6.30991 16.4885 7.00058L16.4885 12.7086C16.4885 12.7805 16.5049 12.8506 16.5349 12.9159V12.9159Z" fill="#FD4848"/>
<path d="M15.9885 15.5C15.9885 15.5 14.1969 18 11.9867 18C9.77655 18 7.98486 15.5 7.98486 15.5C7.98486 15.5 9.77655 13 11.9867 13C14.1969 13 15.9885 15.5 15.9885 15.5Z" fill="#D5FF5C"/>
<path d="M13.8543 15.5C13.8543 16.5311 13.018 17.3671 11.9863 17.3671C10.9545 17.3671 10.1183 16.5311 10.1183 15.5C10.1183 14.4689 10.9545 13.6329 11.9863 13.6329C13.018 13.6329 13.8543 14.4689 13.8543 15.5Z" stroke="#FD4848" stroke-width="0.265831"/>
<path d="M13.1041 15.5C13.1041 16.1169 12.6037 16.6171 11.9864 16.6171C11.3691 16.6171 10.8688 16.1169 10.8688 15.5C10.8688 14.8831 11.3691 14.3829 11.9864 14.3829C12.6037 14.3829 13.1041 14.8831 13.1041 15.5Z" stroke="#FD4848" stroke-width="0.265831"/>
<path d="M14.605 15.5C14.605 16.9453 13.4327 18.1171 11.9866 18.1171C10.5405 18.1171 9.36827 16.9453 9.36827 15.5C9.36827 14.0547 10.5405 12.8829 11.9866 12.8829C13.4327 12.8829 14.605 14.0547 14.605 15.5Z" stroke="#FD4848" stroke-width="0.265831"/>
<path d="M15.3552 15.5C15.3552 17.3595 13.847 18.8671 11.9865 18.8671C10.1259 18.8671 8.61778 17.3595 8.61778 15.5C8.61778 13.6405 10.1259 12.1329 11.9865 12.1329C13.847 12.1329 15.3552 13.6405 15.3552 15.5Z" stroke="#FD4848" stroke-width="0.265831"/>
<path d="M12.3534 15.5C12.3534 15.7027 12.1891 15.8671 11.9863 15.8671C11.7836 15.8671 11.6192 15.7027 11.6192 15.5C11.6192 15.2973 11.7836 15.1329 11.9863 15.1329C12.1891 15.1329 12.3534 15.2973 12.3534 15.5Z" fill="#162BEB" stroke="#FD4848" stroke-width="0.265831"/>
<ellipse cx="11.9863" cy="15.5" rx="0.5" ry="0.5" fill="#FD4848"/>
<mask id="path-10-inside-1_4684_17034" fill="white">
<path d="M15.9885 15.5C15.9885 15.5 14.1969 18 11.9867 18C9.77655 18 7.98486 15.5 7.98486 15.5C7.98486 15.5 9.77655 13 11.9867 13C14.1969 13 15.9885 15.5 15.9885 15.5Z"/>
</mask>
<path d="M15.9885 15.5C15.9885 15.5 14.1969 18 11.9867 18C9.77655 18 7.98486 15.5 7.98486 15.5C7.98486 15.5 9.77655 13 11.9867 13C14.1969 13 15.9885 15.5 15.9885 15.5Z" stroke="#D5FF5C" stroke-width="0.531663" mask="url(#path-10-inside-1_4684_17034)"/>
</svg>
