<svg width="32" height="32" viewBox="0 0 32 32" fill="none" xmlns="http://www.w3.org/2000/svg">
<path d="M31.6315 11.3153L19.2596 12.9247C19.189 12.9339 19.1232 12.9658 19.0729 13.0156L18.0545 14.0177C17.9278 14.1427 17.7231 14.1427 17.596 14.0177L17.4177 13.8421C17.2898 13.7163 17.2898 13.5114 17.4177 13.3856L18.6334 12.1894C18.7614 12.0636 18.7614 11.8587 18.6334 11.7329L16.2289 9.36641C16.1023 9.24147 15.8975 9.24147 15.7705 9.36641L13.366 11.7329C13.238 11.8587 13.238 12.0636 13.366 12.1894L14.5817 13.3856C14.7097 13.5114 14.7097 13.7163 14.5817 13.8421L14.4034 14.0177C14.2768 14.1427 14.072 14.1427 13.9449 14.0177L12.9265 13.0156C12.8757 12.9658 12.8104 12.9339 12.7398 12.9247L0.368384 11.3153C0.0599368 11.2751 -0.123632 11.6455 0.097003 11.8627L2.79493 14.518C3.00056 14.7202 2.85582 15.068 2.56591 15.068C2.27599 15.068 2.13126 15.4157 2.33689 15.618L4.86581 18.1068C4.90728 18.1474 4.95936 18.1767 5.01584 18.1907L13.6241 20.327C13.6938 20.3444 13.7561 20.3842 13.8006 20.4401L15.1324 22.1151C15.3698 22.4397 15.7709 22.8154 15.7709 22.8154C15.8975 22.9403 16.1023 22.9403 16.2294 22.8154C16.2294 22.8154 16.5612 22.4833 16.8679 22.1151L18.1997 20.4401C18.2442 20.3842 18.306 20.3444 18.3762 20.327L26.9845 18.1907C27.0414 18.1767 27.093 18.1474 27.1345 18.1068L29.6634 15.618C29.869 15.4157 29.7243 15.068 29.4344 15.068C29.1445 15.068 28.9997 14.7202 29.2054 14.518L31.9033 11.8627C32.1235 11.6455 31.9399 11.2755 31.6315 11.3153Z" fill="#ED145B"/>
</svg>
