<?xml version="1.0" encoding="UTF-8" standalone="no"?>
<!-- Created with Inkscape (http://www.inkscape.org/) -->

<svg
   version="1.1"
   id="svg2"
   width="432"
   height="432"
   viewBox="0 0 432 432"
   sodipodi:docname="Star_black.ai"
   xmlns:inkscape="http://www.inkscape.org/namespaces/inkscape"
   xmlns:sodipodi="http://sodipodi.sourceforge.net/DTD/sodipodi-0.dtd"
   xmlns="http://www.w3.org/2000/svg"
   xmlns:svg="http://www.w3.org/2000/svg">
  <defs
     id="defs6">
    <clipPath
       clipPathUnits="userSpaceOnUse"
       id="clipPath16">
      <path
         d="M 0,324 H 324 V 0 H 0 Z"
         id="path14" />
    </clipPath>
  </defs>
  <sodipodi:namedview
     id="namedview4"
     pagecolor="#ffffff"
     bordercolor="#000000"
     borderopacity="0.25"
     inkscape:showpageshadow="2"
     inkscape:pageopacity="0.0"
     inkscape:pagecheckerboard="0"
     inkscape:deskcolor="#d1d1d1" />
  <g
     id="g8"
     inkscape:groupmode="layer"
     inkscape:label="Star_black"
     transform="matrix(1.3333333,0,0,-1.3333333,0,432)">
    <g
       id="g10">
      <g
         id="g12"
         clip-path="url(#clipPath16)">
        <g
           id="g18"
           transform="translate(275,159.017)">
          <path
             d="m 0,0 v 2.983 2.983 c -18.442,2.938 -58.037,9.763 -77.518,17.221 -6.916,2.622 -12.475,8.136 -15.187,15.052 -7.458,19.391 -14.374,59.212 -17.312,77.744 h -5.966 c -2.938,-18.532 -9.854,-58.353 -17.312,-77.744 -2.712,-6.916 -8.226,-12.385 -15.187,-15.052 C -167.963,15.729 -207.558,8.904 -226,5.966 V 0 c 18.442,-2.938 58.037,-9.763 77.518,-17.221 6.916,-2.622 12.475,-8.136 15.187,-15.052 7.458,-19.391 14.374,-59.212 17.312,-77.744 h 5.966 c 2.938,18.532 9.854,58.353 17.312,77.744 2.712,6.916 8.226,12.385 15.187,15.052 C -58.037,-9.763 -18.442,-2.938 0,0 m -185,164.983 c -49.706,0 -90,-40.294 -90,-90 v -144 c 0,-49.706 40.294,-90 90,-90 h 144 c 49.706,0 90,40.294 90,90 v 144 c 0,49.706 -40.294,90 -90,90 z"
             style="fill:#000000;fill-opacity:1;fill-rule:evenodd;stroke:none"
             id="path20" />
        </g>
      </g>
    </g>
  </g>
</svg>
